# xmcd
#
# Track frame offsets: 
#        150
#        12124
#        26486
#        37293
#        49420
#        61972
#        73299
#        86143
#        100378
#        116824
#        129277
#        140076
#        153306
#        166851
#        177960
#        188853
#        202190
#        214843
#        226995
#        238525
#
# Disc length: 3383 seconds
#
# Revision: 2
# Processed by: cddbd v1.5.2PL0 Copyright (c) Steve Scherf et al.
# Submitted via: ExactAudioCopyFreeDBPlugin 1.0
#
DISCID=290d3514
DTITLE=Various Artist - Rhythm and Blues Christmas:  Celebrate with All
DTITLE=Your Favourite Stars [Ace Records]
DYEAR=2006
DGENRE=Rhythm and Blues
TTITLE0=B.B. King - Christmas Celebration
TTITLE1=Smokey Wilson - Christmas
TTITLE2=Riff Ruffin - Xmas Baby
TTITLE3=Mari Jones and Johnny Moore Orchestra - Merry Christmas Baby
TTITLE4=Bobby Nunn - Christmas Bells
TTITLE5=The Voices - Santa Claus Baby
TTITLE6=The Debonaires - Christmas Time
TTITLE7=Oscar McLollie and His Honey Jumpers - God Gave Us Christmas
TTITLE8=Jesse Belvin - I Want You with Me Xmas
TTITLE9=Lowell Fulsom - I Wanna Spend Christmas With You, Part 1
TTITLE10=Lowell Fulsom - I Wanna Spend Christmas With You, Part 2
TTITLE11=Little Willie Littlefield - Merry Xmas
TTITLE12=The Nic Nacs with Mickey Champion - Gonna Have a Merry Xmas
TTITLE13=The Debonaires - Crazy Santa Claus
TTITLE14=Smokey Hogg - My Christmas Baby
TTITLE15=Sylvester Cotton - Christmas Blues
TTITLE16=The Elves - White Hot Christmas
TTITLE17=The Voices - Santa Claus Boogie
TTITLE18=Oscar McLollie and His Honey Jumpers - Dig That Crazy Santa Cla
TTITLE18=us
TTITLE19=Hadda Brooks - White Christmas
EXTD=
EXTT0=
EXTT1=
EXTT2=
EXTT3=
EXTT4=
EXTT5=
EXTT6=
EXTT7=
EXTT8=
EXTT9=
EXTT10=
EXTT11=
EXTT12=
EXTT13=
EXTT14=
EXTT15=
EXTT16=
EXTT17=
EXTT18=
EXTT19=
PLAYORDER=
